<svg xmlns="http://www.w3.org/2000/svg" viewBox="0 0 320 130"><g fill="none" stroke="#EDE4D3" stroke-width="3" stroke-linecap="round" stroke-linejoin="round"><path d="M30,50 L52,38 L74,50 L74,76 L52,88 L30,76 Z"></path><path d="M52,38 L52,20"></path><path d="M40,44 L40,30"></path><path d="M64,44 L64,30"></path><path d="M74,76 L74,100"></path><path d="M80,76 L80,100"></path><path d="M30,76 L10,86"></path><path d="M74,50 L100,64 L126,50 L152,64 L178,50 L204,64 L230,50"></path><path d="M78,55 L98,66"></path><path d="M130,55 L150,66"></path><path d="M182,55 L202,66"></path><path d="M126,50 L126,30"></path><path d="M178,50 L178,30"></path><path d="M100,64 L100,84"></path><path d="M204,64 L204,84"></path><path d="M230,50 L252,38 L274,50 L296,38 L296,64 L274,76 L252,64 Z"></path></g><text x="52" y="16" fill="#EDE4D3" font-family="monospace" font-size="15" font-weight="700" text-anchor="middle"></text><text x="87" y="100" fill="#E23A34" font-family="monospace" font-size="15" font-weight="700" text-anchor="middle">O</text><text x="2" y="90" fill="#EDE4D3" font-family="monospace" font-size="15" font-weight="700" text-anchor="start">HO</text><text x="300" y="64" fill="#E23A34" font-family="monospace" font-size="15" font-weight="700" text-anchor="start">O</text><text x="258" y="20" fill="#EDE4D3" font-family="monospace" font-size="15" font-weight="700" text-anchor="middle">OH</text></svg>