<svg xmlns="http://www.w3.org/2000/svg" viewBox="0 0 200 130"><path d="M6,69.9 L14,77.3 L22,83.5 L30,87.8 L38,89.8 L46,89.5 L54,86.7 L62,81.9 L70,75.3 L78,67.7 L86,59.7 L94,52.1 L102,45.7 L110,41.0 L118,38.4 L126,38.2 L134,40.5 L142,45.0 L150,51.2 L158,58.7 L166,66.6 L174,74.3 L182,81.1" fill="none" stroke="#C6A24C" stroke-width="3.5" stroke-linecap="round"></path><path d="M6,83.0 L14,76.8 L22,69.3 L30,61.3 L38,53.6 L46,46.9 L54,41.8 L62,38.7 L70,38.1 L78,39.8 L86,43.9 L94,49.8 L102,57.1 L110,65.0 L118,72.8 L126,79.8 L134,85.3 L142,88.8 L150,90.0 L158,88.7 L166,85.2 L174,79.6 L182,72.5" fill="none" stroke="#EDE4D3" stroke-width="3.5" stroke-linecap="round"></path><path d="M6,39.2 L14,38.0 L22,39.3 L30,42.9 L38,48.4 L46,55.5 L54,63.3 L62,71.2 L70,78.4 L78,84.3 L86,88.3 L94,90.0 L102,89.2 L110,86.1 L118,80.9 L126,74.1 L134,66.4 L142,58.4 L150,51.0 L158,44.8 L166,40.4 L174,38.2 L182,38.4" fill="none" stroke="#E23A34" stroke-width="3.5" stroke-linecap="round"></path></svg>