<svg xmlns="http://www.w3.org/2000/svg" viewBox="0 0 300 130"><g fill="none" stroke="#EDE4D3" stroke-width="3" stroke-linecap="round" stroke-linejoin="round"><path d="M20,74 L44,58 L68,74 L92,58 L116,74 L140,58 L164,74 L188,58 L212,74 L236,58 L260,74"></path><path d="M20,74 L20,50"></path><path d="M116,74 L116,50"></path><path d="M122,74 L122,52"></path><path d="M188,58 L188,34"></path><path d="M194,58 L194,36"></path><path d="M260,74 L260,50"></path><path d="M266,74 L266,52"></path><path d="M44,58 L44,34"></path><path d="M164,74 L164,100"></path></g><text x="12" y="48" fill="#E23A34" font-family="monospace" font-size="15" font-weight="700" text-anchor="start">O</text><text x="2" y="86" fill="#EDE4D3" font-family="monospace" font-size="15" font-weight="700" text-anchor="start">HO</text><text x="44" y="28" fill="#C6A24C" font-family="monospace" font-size="15" font-weight="700" text-anchor="middle">H2N</text><text x="116" y="44" fill="#E23A34" font-family="monospace" font-size="15" font-weight="700" text-anchor="middle">O</text><text x="140" y="52" fill="#C6A24C" font-family="monospace" font-size="15" font-weight="700" text-anchor="middle">N</text><text x="188" y="30" fill="#E23A34" font-family="monospace" font-size="15" font-weight="700" text-anchor="middle">O</text><text x="212" y="68" fill="#C6A24C" font-family="monospace" font-size="15" font-weight="700" text-anchor="middle">N</text><text x="260" y="46" fill="#E23A34" font-family="monospace" font-size="15" font-weight="700" text-anchor="middle">O</text><text x="284" y="74" fill="#EDE4D3" font-family="monospace" font-size="15" font-weight="700" text-anchor="middle">OH</text><text x="164" y="116" fill="#E6C25A" font-family="monospace" font-size="15" font-weight="700" text-anchor="middle">SH</text></svg>