<svg xmlns="http://www.w3.org/2000/svg" viewBox="0 0 190 120"><g fill="none" stroke="#EDE4D3" stroke-width="3" stroke-linecap="round" stroke-linejoin="round"><path d="M30,44 L52,32 L74,44 L74,70 L52,82 L30,70 Z"></path><path d="M34,48 L34,66"></path><path d="M54,36 L70,46"></path><path d="M70,68 L54,78"></path><path d="M30,44 L8,34"></path><path d="M30,70 L8,80"></path><path d="M74,44 L96,32"></path><path d="M96,32 L118,44"></path><path d="M97,38 L117,50"></path><path d="M118,44 L140,32"></path><path d="M140,32 L140,10"></path><path d="M146,32 L146,12"></path><path d="M140,32 L162,44"></path></g><text x="0" y="34" fill="#EDE4D3" font-family="monospace" font-size="15" font-weight="700" text-anchor="start">HO</text><text x="0" y="84" fill="#EDE4D3" font-family="monospace" font-size="15" font-weight="700" text-anchor="start">HO</text><text x="140" y="6" fill="#E23A34" font-family="monospace" font-size="15" font-weight="700" text-anchor="middle">O</text><text x="168" y="46" fill="#EDE4D3" font-family="monospace" font-size="15" font-weight="700" text-anchor="start">OH</text></svg>